<svg width="27" height="27" viewBox="0 0 27 27" fill="none" xmlns="http://www.w3.org/2000/svg">
<path d="M3.97619 0.889648C2.33903 0.889648 1 2.22868 1 3.86584V22.9135C1 24.5506 2.33903 25.8896 3.97619 25.8896H23.0238C24.661 25.8896 26 24.5506 26 22.9135V3.86584C26 2.22868 24.661 0.889648 23.0238 0.889648H3.97619ZM3.97619 2.08012H23.0238C24.0188 2.08012 24.8095 2.87085 24.8095 3.86584V22.9135C24.8095 23.9084 24.0188 24.6992 23.0238 24.6992H3.97619C2.9812 24.6992 2.19048 23.9084 2.19048 22.9135V3.86584C2.19048 2.87085 2.9812 2.08012 3.97619 2.08012ZM14.1208 4.46108C13.9632 4.46109 13.8119 4.52365 13.7003 4.63502C13.5888 4.7464 13.5259 4.89749 13.5256 5.05515C13.5256 5.05515 13.519 7.95707 13.5128 10.8657C13.5096 12.32 13.5058 13.7758 13.5035 14.8719C13.5011 15.968 13.5 16.6616 13.5 16.7193C13.5 17.7998 12.5187 18.6828 11.4004 18.6828C10.291 18.6828 9.40541 17.7961 9.40541 16.6867C9.40541 15.5773 10.291 14.6917 11.4004 14.6917C11.438 14.6917 11.5137 14.7041 11.6434 14.7196C11.727 14.7297 11.8118 14.7218 11.8921 14.6967C11.9725 14.6715 12.0466 14.6296 12.1096 14.5736C12.1725 14.5177 12.2229 14.449 12.2574 14.3722C12.2918 14.2954 12.3096 14.2121 12.3095 14.1279V11.6272C12.3095 11.4758 12.2518 11.33 12.1481 11.2197C12.0444 11.1093 11.9026 11.0426 11.7515 11.0331C11.6587 11.0273 11.542 11.0157 11.4004 11.0157C8.27567 11.0157 5.72935 13.562 5.72935 16.6867C5.72935 19.8114 8.27567 22.3577 11.4004 22.3577C14.525 22.3577 17.0714 19.8114 17.0714 16.6867V11.3005C17.9373 11.993 19.0164 12.4317 20.2081 12.4317C20.3706 12.4317 20.5252 12.4221 20.6731 12.4084C20.8209 12.3948 20.9583 12.3264 21.0583 12.2167C21.1583 12.1071 21.2137 11.964 21.2137 11.8155V9.03581C21.2138 8.88532 21.1569 8.74039 21.0544 8.63017C20.9519 8.51995 20.8115 8.45262 20.6615 8.44173C18.7896 8.30744 17.2975 6.8493 17.1028 4.9947C17.0876 4.84835 17.0187 4.71282 16.9094 4.61428C16.8001 4.51574 16.6582 4.46116 16.5111 4.46108H14.1208ZM14.7149 5.65155H16.0728C16.5054 7.61507 18.0397 9.11251 20.0232 9.48805V11.1935C18.7501 11.1289 17.6318 10.4938 16.9738 9.4927C16.9034 9.38556 16.8003 9.30401 16.6798 9.26017C16.5594 9.21633 16.428 9.21255 16.3052 9.24939C16.1824 9.28622 16.0748 9.36171 15.9984 9.46461C15.9219 9.56752 15.8807 9.69236 15.881 9.82055V16.6867C15.881 19.1679 13.8817 21.1673 11.4004 21.1673C8.91916 21.1673 6.91983 19.1679 6.91983 16.6867C6.91983 14.3054 8.77743 12.4154 11.119 12.2631V13.5582C9.50382 13.7085 8.21494 15.0338 8.21494 16.6867C8.21494 18.4392 9.64788 19.8733 11.4004 19.8733C13.144 19.8733 14.6905 18.5007 14.6905 16.7193C14.6905 16.7484 14.6916 15.9703 14.694 14.8743C14.6963 13.7782 14.7001 12.3223 14.7033 10.868C14.7089 8.25678 14.7138 6.15703 14.7149 5.65155Z" fill="#EE6451" stroke="#EE6451" stroke-width="0.5"/>
</svg>
